<?xml version="1.0" encoding="utf-8" standalone="no"?><!DOCTYPE svg PUBLIC "-//W3C//DTD SVG 20010904//EN" "http://www.w3.org/TR/2001/REC-SVG-20010904/DTD/svg10.dtd"><svg xmlns="http://www.w3.org/2000/svg" width="553" height="727" xmlns:xlink="http://www.w3.org/1999/xlink"><source><![CDATA[Created with Raphaël 2.1.2字符处理函数字符值不等于0?UTF8字符解码,指针指向下一个字符从已解码的字符值在map中查找数据，保存到datax=data&0xFF,y=data>>8&0xFF;后续坐标转换宽偏处理退出函数yesno]]></source><desc style="-webkit-tap-highlight-color: rgba(0, 0, 0, 0);">Created with Raphaël 2.1.2</desc><defs style="-webkit-tap-highlight-color: rgba(0, 0, 0, 0);"><path stroke-linecap="round" d="M5,0 0,2.5 5,5z" id="raphael-marker-block-obj495" style="-webkit-tap-highlight-color: rgba(0, 0, 0, 0);"></path><marker id="raphael-marker-endblock33-obj496" markerHeight="3" markerWidth="3" orient="auto" refX="1.5" refY="1.5" style="-webkit-tap-highlight-color: rgba(0, 0, 0, 0);"><use xlink:href="#raphael-marker-block-obj495" transform="rotate(180 1.5 1.5) scale(0.6,0.6)" stroke-width="1.6667" fill="black" stroke="none" style="-webkit-tap-highlight-color: rgba(0, 0, 0, 0);"></use></marker></defs><rect x="0" y="0" width="111" height="37" r="20" rx="20" ry="20" fill="#ffffff" stroke="#000000" style="-webkit-tap-highlight-color: rgba(0, 0, 0, 0);" stroke-width="2" class="flowchart" id="st" transform="matrix(1,0,0,1,123.5156,36.752)"></rect><text x="10" y="18.5" text-anchor="start" font="10px &quot;Arial&quot;" stroke="none" fill="#000000" style="-webkit-tap-highlight-color: rgba(0, 0, 0, 0); text-anchor: start; font-style: normal; font-variant: normal; font-weight: normal; font-stretch: normal; font-size: 15px; line-height: normal; font-family: Arial;" id="stt" class="flowchartt" font-size="15px" transform="matrix(1,0,0,1,123.5156,36.752)" stroke-width="1"><tspan dy="5.5" style="-webkit-tap-highlight-color: rgba(0, 0, 0, 0);">字符处理函数</tspan></text><path fill="#ffffff" stroke="#000000" d="M51.251953125,25.6259765625L0,51.251953125L102.50390625,102.50390625L205.0078125,51.251953125L102.50390625,0L0,51.251953125" stroke-width="2" id="cond" class="flowchart" style="-webkit-tap-highlight-color: rgba(0, 0, 0, 0);" transform="matrix(1,0,0,1,76.5117,127.752)"></path><text x="56.251953125" y="51.251953125" text-anchor="start" font="10px &quot;Arial&quot;" stroke="none" fill="#000000" style="-webkit-tap-highlight-color: rgba(0, 0, 0, 0); text-anchor: start; font-style: normal; font-variant: normal; font-weight: normal; font-stretch: normal; font-size: 15px; line-height: normal; font-family: Arial;" id="condt" class="flowchartt" font-size="15px" transform="matrix(1,0,0,1,76.5117,127.752)" stroke-width="1"><tspan dy="5.501953125" style="-webkit-tap-highlight-color: rgba(0, 0, 0, 0);">字符值不等于0?</tspan></text><rect x="0" y="0" width="256.65625" height="37" r="0" rx="0" ry="0" fill="#ffffff" stroke="#000000" style="-webkit-tap-highlight-color: rgba(0, 0, 0, 0);" stroke-width="2" class="flowchart" id="decode" transform="matrix(1,0,0,1,50.6875,317.0078)"></rect><text x="10" y="18.5" text-anchor="start" font="10px &quot;Arial&quot;" stroke="none" fill="#000000" style="-webkit-tap-highlight-color: rgba(0, 0, 0, 0); text-anchor: start; font-style: normal; font-variant: normal; font-weight: normal; font-stretch: normal; font-size: 15px; line-height: normal; font-family: Arial;" id="decodet" class="flowchartt" font-size="15px" transform="matrix(1,0,0,1,50.6875,317.0078)" stroke-width="1"><tspan dy="5.5" style="-webkit-tap-highlight-color: rgba(0, 0, 0, 0);">UTF8字符解码,指针指向下一个字符</tspan></text><rect x="0" y="0" width="350.03125" height="37" r="0" rx="0" ry="0" fill="#ffffff" stroke="#000000" style="-webkit-tap-highlight-color: rgba(0, 0, 0, 0);" stroke-width="2" class="flowchart" id="get" transform="matrix(1,0,0,1,4,440.7598)"></rect><text x="10" y="18.5" text-anchor="start" font="10px &quot;Arial&quot;" stroke="none" fill="#000000" style="-webkit-tap-highlight-color: rgba(0, 0, 0, 0); text-anchor: start; font-style: normal; font-variant: normal; font-weight: normal; font-stretch: normal; font-size: 15px; line-height: normal; font-family: Arial;" id="gett" class="flowchartt" font-size="15px" transform="matrix(1,0,0,1,4,440.7598)" stroke-width="1"><tspan dy="5.5" style="-webkit-tap-highlight-color: rgba(0, 0, 0, 0);">从已解码的字符值在map中查找数据，保存到data</tspan></text><rect x="0" y="0" width="232.78125" height="37" r="0" rx="0" ry="0" fill="#ffffff" stroke="#000000" style="-webkit-tap-highlight-color: rgba(0, 0, 0, 0);" stroke-width="2" class="flowchart" id="calc" transform="matrix(1,0,0,1,62.625,564.5117)"></rect><text x="10" y="18.5" text-anchor="start" font="10px &quot;Arial&quot;" stroke="none" fill="#000000" style="-webkit-tap-highlight-color: rgba(0, 0, 0, 0); text-anchor: start; font-style: normal; font-variant: normal; font-weight: normal; font-stretch: normal; font-size: 15px; line-height: normal; font-family: Arial;" id="calct" class="flowchartt" font-size="15px" transform="matrix(1,0,0,1,62.625,564.5117)" stroke-width="1"><tspan dy="5.5" style="-webkit-tap-highlight-color: rgba(0, 0, 0, 0);">x=data&amp;0xFF,y=data&gt;&gt;8&amp;0xFF;</tspan></text><rect x="0" y="0" width="172" height="37" r="0" rx="0" ry="0" fill="#ffffff" stroke="#000000" style="-webkit-tap-highlight-color: rgba(0, 0, 0, 0);" stroke-width="2" class="flowchart" id="other" transform="matrix(1,0,0,1,93.0156,688.2637)"></rect><text x="10" y="18.5" text-anchor="start" font="10px &quot;Arial&quot;" stroke="none" fill="#000000" style="-webkit-tap-highlight-color: rgba(0, 0, 0, 0); text-anchor: start; font-style: normal; font-variant: normal; font-weight: normal; font-stretch: normal; font-size: 15px; line-height: normal; font-family: Arial;" id="othert" class="flowchartt" font-size="15px" transform="matrix(1,0,0,1,93.0156,688.2637)" stroke-width="1"><tspan dy="5.5" style="-webkit-tap-highlight-color: rgba(0, 0, 0, 0);">后续坐标转换宽偏处理</tspan></text><rect x="0" y="0" width="82" height="37" r="20" rx="20" ry="20" fill="#ffffff" stroke="#000000" style="-webkit-tap-highlight-color: rgba(0, 0, 0, 0);" stroke-width="2" class="flowchart" id="e" transform="matrix(1,0,0,1,469.5352,160.5039)"></rect><text x="10" y="18.5" text-anchor="start" font="10px &quot;Arial&quot;" stroke="none" fill="#000000" style="-webkit-tap-highlight-color: rgba(0, 0, 0, 0); text-anchor: start; font-style: normal; font-variant: normal; font-weight: normal; font-stretch: normal; font-size: 15px; line-height: normal; font-family: Arial;" id="et" class="flowchartt" font-size="15px" transform="matrix(1,0,0,1,469.5352,160.5039)" stroke-width="1"><tspan dy="5.5" style="-webkit-tap-highlight-color: rgba(0, 0, 0, 0);">退出函数</tspan><tspan dy="18" x="10" style="-webkit-tap-highlight-color: rgba(0, 0, 0, 0);"></tspan></text><path fill="none" stroke="#000000" d="M179.015625,73.751953125C179.015625,73.751953125,179.015625,113.40605306625366,179.015625,124.75239220960066" stroke-width="2" marker-end="url(#raphael-marker-endblock33-obj496)" style="-webkit-tap-highlight-color: rgba(0, 0, 0, 0);"></path><path fill="none" stroke="#000000" d="M179.015625,230.255859375C179.015625,230.255859375,179.015625,298.7295090352418,179.015625,314.00902949165317" stroke-width="2" marker-end="url(#raphael-marker-endblock33-obj496)" style="-webkit-tap-highlight-color: rgba(0, 0, 0, 0);"></path><text x="184.015625" y="240.255859375" text-anchor="start" font="10px &quot;Arial&quot;" stroke="none" fill="#000000" style="-webkit-tap-highlight-color: rgba(0, 0, 0, 0); text-anchor: start; font-style: normal; font-variant: normal; font-weight: normal; font-stretch: normal; font-size: 15px; line-height: normal; font-family: Arial;" font-size="15px" stroke-width="1"><tspan dy="5.505859375" style="-webkit-tap-highlight-color: rgba(0, 0, 0, 0);">yes</tspan></text><path fill="none" stroke="#000000" d="M281.51953125,179.00390625C281.51953125,179.00390625,442.49231952801347,179.00390625,466.54391777658384,179.00390625" stroke-width="2" marker-end="url(#raphael-marker-endblock33-obj496)" style="-webkit-tap-highlight-color: rgba(0, 0, 0, 0);"></path><text x="286.51953125" y="169.00390625" text-anchor="start" font="10px &quot;Arial&quot;" stroke="none" fill="#000000" style="-webkit-tap-highlight-color: rgba(0, 0, 0, 0); text-anchor: start; font-style: normal; font-variant: normal; font-weight: normal; font-stretch: normal; font-size: 15px; line-height: normal; font-family: Arial;" font-size="15px" stroke-width="1"><tspan dy="5.50390625" style="-webkit-tap-highlight-color: rgba(0, 0, 0, 0);">no</tspan></text><path fill="none" stroke="#000000" d="M179.015625,354.0078125C179.015625,354.0078125,179.015625,422.4814621602418,179.015625,437.7609826166532" stroke-width="2" marker-end="url(#raphael-marker-endblock33-obj496)" style="-webkit-tap-highlight-color: rgba(0, 0, 0, 0);"></path><path fill="none" stroke="#000000" d="M179.015625,477.759765625C179.015625,477.759765625,179.015625,546.2334152852418,179.015625,561.5129357416531" stroke-width="2" marker-end="url(#raphael-marker-endblock33-obj496)" style="-webkit-tap-highlight-color: rgba(0, 0, 0, 0);"></path><path fill="none" stroke="#000000" d="M179.015625,601.51171875C179.015625,601.51171875,179.015625,669.9853684102418,179.015625,685.2648888666531" stroke-width="2" marker-end="url(#raphael-marker-endblock33-obj496)" style="-webkit-tap-highlight-color: rgba(0, 0, 0, 0);"></path><path fill="none" stroke="#000000" d="M265.015625,706.763671875C265.015625,706.763671875,290.015625,706.763671875,290.015625,706.763671875C290.015625,706.763671875,290.015625,183.00390625,290.015625,183.00390625C290.015625,183.00390625,298.015625,179.00390625,290.015625,175.00390625C290.015625,175.00390625,290.015625,102.751953125,290.015625,102.751953125C290.015625,102.751953125,179.015625,102.751953125,179.015625,102.751953125C179.015625,102.751953125,179.015625,118.12539768218994,179.015625,124.76120089925826" stroke-width="2" marker-end="url(#raphael-marker-endblock33-obj496)" style="-webkit-tap-highlight-color: rgba(0, 0, 0, 0);"></path></svg>